<svg width="326" height="320" viewBox="0 0 326 320" fill="none" xmlns="http://www.w3.org/2000/svg">
<path d="M164.847 230.96C193.46 208.449 231.545 192.116 275.428 210.408C292.9 175.267 289.712 129.055 265.255 93.2467C245.093 63.7587 208.8 40.0081 157.316 43.3201C209.536 104.512 198.607 186.493 164.847 230.96Z" fill="#ED1345"/>
<path d="M36.1803 264.772C12.8479 235.963 0 199.648 0 162.532C0 72.912 72.9093 -1.67704e-05 162.524 -1.67704e-05C252.149 -1.67704e-05 325.075 72.912 325.075 162.532C325.075 182.733 321.415 202.436 314.188 221.081L300.823 215.907C307.396 198.923 310.72 180.957 310.72 162.532C310.72 80.8266 244.241 14.3373 162.524 14.3373C80.8265 14.3373 14.3527 80.8266 14.3527 162.532C14.3527 196.374 26.0609 229.481 47.3193 255.751L36.1803 264.772Z" fill="#918F90"/>
<path d="M149.965 228.229C131.698 217.137 111.595 208.869 84.9073 219.991C127.995 183.133 161.085 133.732 166.52 80.2534C188.504 133.504 177.613 192.651 149.965 228.229Z" fill="#1EB5C6"/>
<path d="M259.38 319.672C247.795 319.672 241.749 312.656 237.341 307.527C233.133 302.643 230.895 300.296 226.021 300.296C221.176 300.296 218.92 302.643 214.743 307.52C210.332 312.656 204.303 319.672 192.704 319.672C181.139 319.672 175.109 312.656 170.693 307.52C166.505 302.643 164.264 300.296 159.407 300.296C154.556 300.296 152.319 302.643 148.141 307.52C143.725 312.656 137.697 319.672 126.118 319.672C114.535 319.672 108.506 312.644 104.09 307.52C99.9145 302.643 97.6754 300.296 92.8598 300.296C88.0005 300.296 85.7718 302.643 81.5817 307.52C77.1666 312.656 71.1364 319.672 59.5573 319.672C47.9885 319.672 41.9458 312.656 37.5302 307.52C33.338 302.643 31.1156 300.296 26.2562 300.296V286.117C37.85 286.117 43.8781 293.153 48.2932 298.279C52.4693 303.148 54.6989 305.504 59.5573 305.504C64.4172 305.504 66.626 303.148 70.8317 298.279C75.2322 293.153 81.275 286.117 92.8598 286.117C104.425 286.117 110.453 293.153 114.855 298.279C119.045 303.148 121.26 305.504 126.118 305.504C130.978 305.504 133.188 303.148 137.379 298.279C141.779 293.153 147.821 286.117 159.407 286.117C170.984 286.117 177.028 293.153 181.444 298.279C185.632 303.148 187.857 305.504 192.704 305.504C197.561 305.504 199.805 303.148 203.983 298.272C208.397 293.153 214.435 286.117 226.021 286.117C237.62 286.117 243.661 293.153 248.073 298.272C252.291 303.148 254.519 305.504 259.38 305.504C264.253 305.504 266.492 303.148 270.696 298.272C275.111 293.153 281.149 286.117 292.747 286.117V300.296C287.875 300.296 285.649 302.643 281.445 307.527C277.012 312.656 270.972 319.672 259.38 319.672Z" fill="#1EB5C6"/>
<path d="M260.407 276.876C248.685 276.876 242.601 269.776 238.119 264.591C233.871 259.656 231.601 257.288 226.688 257.288C221.773 257.288 219.519 259.656 215.271 264.582C210.816 269.776 204.723 276.876 192.997 276.876C181.303 276.876 175.191 269.776 170.739 264.582C166.505 259.656 164.252 257.288 159.333 257.288C154.419 257.288 152.179 259.656 147.945 264.582C143.493 269.776 137.393 276.876 125.67 276.876C113.975 276.876 107.866 269.755 103.407 264.572C99.1797 259.656 96.9349 257.288 92.0489 257.288C87.1369 257.288 84.8792 259.656 80.65 264.582C76.1917 269.776 70.0969 276.876 58.374 276.876C46.6661 276.876 40.5806 269.776 36.113 264.582C31.8786 259.656 35.0682 250.767 30.165 250.767L24.7098 242.949C36.4182 242.949 42.5276 250.053 46.986 255.237C51.2193 260.17 53.4708 262.539 58.374 262.539C63.2864 262.539 65.5292 260.17 69.7864 255.237C74.2297 250.053 80.326 242.949 92.0489 242.949C103.742 242.949 109.843 250.053 114.295 255.237C118.53 260.17 120.773 262.539 125.67 262.539C130.586 262.539 132.829 260.17 137.073 255.237C141.516 250.053 147.627 242.949 159.333 242.949C171.044 242.949 177.144 250.053 181.608 255.237C185.841 260.17 188.095 262.539 192.997 262.539C197.908 262.539 200.169 260.17 204.409 255.237C208.871 250.053 214.981 242.949 226.688 242.949C238.408 242.949 244.509 250.053 248.991 255.237C253.228 260.17 255.508 262.539 260.407 262.539C265.336 262.539 267.601 260.17 271.849 255.237C276.32 250.041 282.432 242.949 294.141 242.949V257.288C289.224 257.288 286.973 259.656 282.711 264.591C278.24 269.776 272.128 276.876 260.407 276.876Z" fill="#918F90"/>
</svg>
