<svg viewBox="0 0 994 320" fill="none" xmlns="http://www.w3.org/2000/svg">
<g clip-path="url(#clip0_1_2)">
<path d="M391.652 145.875C402.163 145.875 412.535 151.1 412.105 163.457C407.684 163.457 403.765 163.457 399.344 163.457C398.441 158.767 395.005 156.653 389.568 156.653C381.951 156.653 375.936 161.872 374.449 169.54C373.131 176.351 376.913 182.297 384.592 182.364C390.104 182.364 395.005 179.855 397.343 174.896C401.703 174.896 405.683 174.896 410.115 174.896C405.692 187.981 393.308 193.137 382.505 193.137C369.579 193.208 358.064 185.269 361.04 169.54C364.151 153.804 378.735 145.875 391.652 145.875Z" fill="#4F4C4C"/>
<path d="M455.209 156.981C447.665 156.981 443.892 156.981 436.42 156.981L435.155 163.521H452.421C451.739 167.028 451.057 170.532 450.388 174.032H433.121C432.599 176.748 432.085 179.385 431.551 182.165C439.02 182.165 443.369 182.165 450.984 182.165C450.313 185.601 449.633 189.177 448.953 192.676C437.06 192.676 428.353 192.676 416.611 192.676C419.605 177.201 422.592 161.739 425.568 146.403C437.311 146.403 445.359 146.403 457.26 146.403C456.591 149.84 455.897 153.411 455.209 156.981Z" fill="#4F4C4C"/>
<path d="M489.227 156.981C486.187 156.913 482.992 156.981 479.941 156.981C479.209 160.745 478.415 164.845 477.703 168.545H486.985C494.013 168.545 496.603 157.041 489.227 156.981ZM503.319 190.957L502.983 192.676H488.481L482.415 179.055H475.668L473.028 192.676C468.68 192.676 464.261 192.676 460.048 192.676C463.033 177.269 466.009 161.872 469.005 146.403C476.329 146.403 483.873 146.403 491.268 146.403C511.197 146.469 510.6 168.349 496.225 176.284L503.319 190.957Z" fill="#4F4C4C"/>
<path d="M542.869 145.875C553.388 145.875 563.761 151.1 563.331 163.457C558.908 163.457 554.989 163.457 550.571 163.457C549.656 158.767 546.221 156.653 540.785 156.653C533.167 156.653 527.153 161.872 525.676 169.54C524.356 176.351 528.139 182.297 535.807 182.364C541.319 182.364 546.232 179.855 548.568 174.896C552.916 174.896 556.909 174.896 561.328 174.896C556.909 187.981 544.524 193.137 533.724 193.137C520.805 193.208 509.279 185.269 512.253 169.54C515.368 153.804 529.961 145.875 542.869 145.875Z" fill="#4F4C4C"/>
<path d="M582.869 182.033H601.289C600.525 186.003 600 188.707 599.236 192.676C588.791 192.676 578.059 192.676 567.764 192.676L576.717 146.403C581.067 146.403 585.353 146.403 589.776 146.403C585.135 170.332 586.684 162.331 582.869 182.033Z" fill="#4F4C4C"/>
<path d="M646.76 156.981C639.216 156.981 635.444 156.981 627.975 156.981L626.705 163.521H643.972C643.291 167.028 642.612 170.532 641.94 174.032H624.673C624.149 176.748 623.636 179.385 623.101 182.165C630.572 182.165 634.92 182.165 642.539 182.165C641.867 185.601 641.188 189.177 640.504 192.676C628.613 192.676 619.907 192.676 608.161 192.676C611.159 177.201 614.145 161.739 617.12 146.403C628.867 146.403 636.911 146.403 648.815 146.403C648.143 149.84 647.452 153.411 646.76 156.981Z" fill="#4F4C4C"/>
<path d="M685.66 182.411H691.539C706.941 182.411 711.493 158.871 696.096 158.871H690.217L685.66 182.411ZM689.548 192.676H671.319L679.847 148.62H698.077C729.557 148.739 721.085 192.549 689.548 192.676Z" fill="#4F4C4C"/>
<path d="M759.335 158.685C752.152 158.685 748.555 158.685 741.439 158.685L740.233 164.919H756.687C756.036 168.252 755.388 171.584 754.748 174.925H738.3C737.808 177.507 737.311 180.021 736.796 182.669C743.913 182.669 748.063 182.669 755.313 182.669C754.681 185.94 754.023 189.336 753.372 192.676C742.048 192.676 733.761 192.676 722.572 192.676C725.423 177.949 728.271 163.216 731.099 148.62C742.291 148.62 749.957 148.62 761.288 148.62C760.656 151.885 759.996 155.285 759.335 158.685Z" fill="#4F4C4C"/>
<path d="M804.741 173.537H805.092L820.975 148.62H832.852L832.521 150.312L803.708 193.183H798.455L786.031 150.312L786.355 148.62H798.24L804.741 173.537Z" fill="#4F4C4C"/>
<path d="M869.744 170.707C872.813 154.847 848.56 154.847 845.488 170.707C842.4 186.697 866.643 186.697 869.744 170.707ZM832.781 170.707C838.68 140.245 888.28 140.245 882.38 170.707C876.469 201.24 826.875 201.24 832.781 170.707Z" fill="#4F4C4C"/>
<path d="M909.884 182.793L907.965 192.676H883.448L885.357 182.793H891.505L896.217 158.432H890.549L892.457 148.62H916.011L914.111 158.432H908.448L903.732 182.793H909.884Z" fill="#4F4C4C"/>
<path d="M930.373 182.54H947.923C947.185 186.323 946.696 188.897 945.959 192.676C936.008 192.676 925.783 192.676 915.979 192.676L924.504 148.62C928.655 148.62 932.732 148.62 936.941 148.62C932.531 171.4 933.996 163.789 930.373 182.54Z" fill="#4F4C4C"/>
<path d="M991.224 158.685C984.033 158.685 980.44 158.685 973.328 158.685L972.124 164.919H988.56C987.911 168.252 987.269 171.584 986.623 174.925H970.181C969.684 177.507 969.2 180.021 968.687 182.669C975.801 182.669 979.949 182.669 987.2 182.669C986.56 185.94 985.901 189.336 985.263 192.676C973.935 192.676 965.636 192.676 954.447 192.676C957.296 177.949 960.147 163.216 962.977 148.62C974.165 148.62 981.836 148.62 993.169 148.62C992.529 151.885 991.876 155.285 991.224 158.685Z" fill="#4F4C4C"/>
<path d="M385.409 238.365C385.953 235.279 382.431 234.586 378.068 234.337C368.627 233.641 362.909 230.364 364.464 220.8C367.435 201.797 401.677 201.797 398.077 220.8C394.115 220.8 391.212 220.8 387.376 220.8C388.407 214.944 376.483 215.448 375.184 220.679C374.355 224.012 377.495 224.703 381.391 225.143C389.972 226.086 398.297 227.41 396.36 238.421C393.093 256.931 357.163 257.251 360.828 237.856C364.607 237.856 367.883 237.856 371.719 237.856C370.727 243.459 384.503 243.525 385.409 238.365Z" fill="#7B7979"/>
<path d="M435.823 217.341C429.273 217.341 426 217.341 419.517 217.341L418.419 223.572H433.408C432.815 226.907 432.223 230.243 431.64 233.579H416.655C416.207 236.16 415.756 238.675 415.289 241.324C421.769 241.324 425.549 241.324 432.156 241.324C431.584 244.589 430.983 247.988 430.391 251.329C420.071 251.329 412.52 251.329 402.325 251.329C404.921 236.598 407.519 221.868 410.096 207.272C420.291 207.272 427.28 207.272 437.599 207.272C437.025 210.537 436.425 213.943 435.823 217.341Z" fill="#7B7979"/>
<path d="M459.889 232.195H460.203L474.665 207.272H485.492L485.196 208.968L458.944 251.832H454.16L442.829 208.968L443.135 207.272H453.96L459.889 232.195Z" fill="#7B7979"/>
<path d="M510.025 217.341C507.392 217.279 504.609 217.341 501.968 217.341C501.336 220.924 500.641 224.829 500.02 228.352H508.076C514.184 228.352 516.432 217.397 510.025 217.341ZM522.257 249.692L521.965 251.329H509.379L504.103 238.365H498.255L495.972 251.329C492.193 251.329 488.353 251.329 484.708 251.329C487.296 236.663 489.883 221.996 492.48 207.272C498.827 207.272 505.376 207.272 511.8 207.272C529.101 207.332 528.572 228.167 516.097 235.717L522.257 249.692Z" fill="#7B7979"/>
<path d="M549.195 241.449L547.453 251.329H525.105L526.853 241.449H532.448L536.744 217.085H531.589L533.319 207.272H554.789L553.048 217.085H547.893L543.601 241.449H549.195Z" fill="#7B7979"/>
<path d="M588.323 217.341C581.772 217.341 578.499 217.341 572.019 217.341L570.919 223.572H585.897C585.315 226.907 584.725 230.243 584.131 233.579H569.156C568.693 236.16 568.255 238.675 567.789 241.324C574.273 241.324 578.052 241.324 584.657 241.324C584.075 244.589 583.484 247.988 582.888 251.329C572.569 251.329 565.011 251.329 554.816 251.329C557.412 236.598 560.02 221.868 562.587 207.272C572.781 207.272 579.771 207.272 590.097 207.272C589.517 210.537 588.921 213.943 588.323 217.341Z" fill="#7B7979"/>
<path d="M617.831 217.341C615.195 217.279 612.416 217.341 609.775 217.341C609.143 220.924 608.457 224.829 607.833 228.352H615.889C621.989 228.352 624.244 217.397 617.831 217.341ZM630.069 249.692L629.779 251.329H617.192L611.921 238.365H606.071L603.777 251.329C600.007 251.329 596.16 251.329 592.515 251.329C595.101 236.663 597.685 221.996 600.281 207.272C606.644 207.272 613.189 207.272 619.605 207.272C636.913 207.332 636.379 228.167 623.909 235.717L630.069 249.692Z" fill="#7B7979"/>
<path d="M164.847 230.955C193.46 208.444 231.545 192.11 275.428 210.403C292.9 175.261 289.712 129.049 265.255 93.2414C245.093 63.7534 208.8 40.0027 157.316 43.3147C209.536 104.507 198.607 186.488 164.847 230.955Z" fill="#ED1345"/>
<path d="M36.1803 264.767C12.8479 235.957 0 199.643 0 162.527C0 72.9067 72.9093 -0.00531157 162.524 -0.00531157C252.149 -0.00531157 325.075 72.9067 325.075 162.527C325.075 182.728 321.415 202.431 314.188 221.076L300.823 215.902C307.396 198.917 310.72 180.952 310.72 162.527C310.72 80.8214 244.241 14.332 162.524 14.332C80.8265 14.332 14.3527 80.8214 14.3527 162.527C14.3527 196.368 26.0609 229.476 47.3193 255.745L36.1803 264.767Z" fill="#918F90"/>
<path d="M149.965 228.224C131.698 217.132 111.595 208.864 84.9073 219.985C127.995 183.128 161.085 133.727 166.52 80.248C188.504 133.499 177.613 192.645 149.965 228.224Z" fill="#1EB5C6"/>
<path d="M259.38 319.667C247.795 319.667 241.749 312.651 237.341 307.521C233.133 302.637 230.895 300.291 226.021 300.291C221.176 300.291 218.92 302.637 214.743 307.515C210.332 312.651 204.303 319.667 192.704 319.667C181.139 319.667 175.109 312.651 170.693 307.515C166.505 302.637 164.264 300.291 159.407 300.291C154.556 300.291 152.319 302.637 148.141 307.515C143.725 312.651 137.697 319.667 126.118 319.667C114.535 319.667 108.506 312.639 104.09 307.515C99.9145 302.637 97.6755 300.291 92.8599 300.291C88.0005 300.291 85.7719 302.637 81.5817 307.515C77.1667 312.651 71.1364 319.667 59.5573 319.667C47.9885 319.667 41.9459 312.651 37.5303 307.515C33.338 302.637 31.1156 300.291 26.2563 300.291V286.112C37.85 286.112 43.8781 293.148 48.2932 298.273C52.4693 303.143 54.6989 305.498 59.5573 305.498C64.4172 305.498 66.626 303.143 70.8317 298.273C75.2323 293.148 81.2751 286.112 92.8599 286.112C104.425 286.112 110.453 293.148 114.855 298.273C119.045 303.143 121.26 305.498 126.118 305.498C130.978 305.498 133.188 303.143 137.379 298.273C141.779 293.148 147.821 286.112 159.407 286.112C170.984 286.112 177.028 293.148 181.444 298.273C185.632 303.143 187.857 305.498 192.704 305.498C197.561 305.498 199.805 303.143 203.983 298.267C208.397 293.148 214.435 286.112 226.021 286.112C237.62 286.112 243.661 293.148 248.073 298.267C252.291 303.143 254.519 305.498 259.38 305.498C264.253 305.498 266.492 303.143 270.696 298.267C275.111 293.148 281.149 286.112 292.747 286.112V300.291C287.875 300.291 285.649 302.637 281.445 307.521C277.012 312.651 270.972 319.667 259.38 319.667Z" fill="#1EB5C6"/>
<path d="M260.407 276.871C248.685 276.871 242.601 269.771 238.119 264.585C233.871 259.651 231.601 257.283 226.688 257.283C221.773 257.283 219.519 259.651 215.271 264.577C210.816 269.771 204.723 276.871 192.997 276.871C181.303 276.871 175.191 269.771 170.739 264.577C166.505 259.651 164.252 257.283 159.333 257.283C154.419 257.283 152.179 259.651 147.945 264.577C143.493 269.771 137.393 276.871 125.67 276.871C113.975 276.871 107.866 269.749 103.407 264.567C99.1797 259.651 96.9349 257.283 92.0489 257.283C87.1369 257.283 84.8792 259.651 80.65 264.577C76.1917 269.771 70.0969 276.871 58.374 276.871C46.6661 276.871 40.5807 269.771 36.1131 264.577C31.8787 259.651 35.0683 250.761 30.1651 250.761L24.7099 242.944C36.4183 242.944 42.5276 250.048 46.986 255.232C51.2193 260.165 53.4708 262.533 58.374 262.533C63.2864 262.533 65.5292 260.165 69.7864 255.232C74.2297 250.048 80.326 242.944 92.0489 242.944C103.742 242.944 109.843 250.048 114.295 255.232C118.53 260.165 120.773 262.533 125.67 262.533C130.586 262.533 132.829 260.165 137.073 255.232C141.516 250.048 147.627 242.944 159.333 242.944C171.044 242.944 177.144 250.048 181.608 255.232C185.841 260.165 188.095 262.533 192.997 262.533C197.908 262.533 200.169 260.165 204.409 255.232C208.871 250.048 214.981 242.944 226.688 242.944C238.408 242.944 244.509 250.048 248.991 255.232C253.228 260.165 255.508 262.533 260.407 262.533C265.336 262.533 267.601 260.165 271.849 255.232C276.32 250.036 282.432 242.944 294.141 242.944V257.283C289.224 257.283 286.973 259.651 282.711 264.585C278.24 269.771 272.128 276.871 260.407 276.871Z" fill="#918F90"/>
<path d="M372.6 273.344L377.251 287.645H392.285L380.119 296.476L384.765 310.774L372.6 301.936L360.439 310.774L365.083 296.476L352.924 287.645H367.956L372.6 273.344Z" fill="#D28E0A"/>
<path d="M413.208 275.151H417.209V306.905H437.161V310.602H413.208V275.151Z" fill="#D28E0A"/>
<path d="M459.492 279.559L451.389 297.636H467.545L459.492 279.559ZM477.572 310.602H473.268L469.115 301.233H449.82L445.616 310.602H441.513L457.669 274.898H461.416L477.572 310.602Z" fill="#D28E0A"/>
<path d="M498.687 311.209C488.457 311.209 480.911 303.157 480.911 292.927C480.911 282.8 488.407 274.544 498.839 274.544C505.269 274.544 509.119 276.822 512.664 280.165L509.931 283.103C506.941 280.267 503.6 278.241 498.788 278.241C490.937 278.241 485.064 284.572 485.064 292.825C485.064 301.08 490.989 307.514 498.788 307.514C503.651 307.514 506.84 305.639 510.233 302.398L512.867 304.98C509.169 308.729 505.117 311.209 498.687 311.209Z" fill="#D28E0A"/>
<path d="M547.348 278.849H539.043V306.905H547.348C556.312 306.905 562.035 300.828 562.035 292.927C562.035 285.027 556.312 278.849 547.348 278.849ZM547.348 310.602H535.043V275.151H547.348C558.489 275.151 566.187 282.8 566.187 292.825C566.187 302.855 558.489 310.602 547.348 310.602Z" fill="#D28E0A"/>
<path d="M575.601 280.469H573.779V275.151H578.439V279.709C578.439 283.81 576.665 285.788 572.817 286.647L572.211 284.875C574.741 283.964 575.805 282.647 575.601 280.469Z" fill="#D28E0A"/>
<path d="M596.923 279.559L588.82 297.636H604.976L596.923 279.559ZM615.001 310.602H610.699L606.545 301.233H587.251L583.047 310.602H578.944L595.1 274.898H598.847L615.001 310.602Z" fill="#D28E0A"/>
<path d="M648.068 275.151H651.968V310.602H648.776L625.885 281.532V310.602H621.988V275.151H625.735L648.068 303.563V275.151Z" fill="#D28E0A"/>
<path d="M688.072 275.151H691.972V310.602H688.78L665.889 281.532V310.602H661.989V275.151H665.739L688.072 303.563V275.151Z" fill="#D28E0A"/>
<path d="M727.62 278.798H705.995V290.903H725.34V294.548H705.995V306.956H727.873V310.602H701.993V275.151H727.62V278.798Z" fill="#D28E0A"/>
<path d="M752.128 311.209C741.897 311.209 734.352 303.157 734.352 292.927C734.352 282.8 741.847 274.544 752.279 274.544C758.712 274.544 762.56 276.822 766.104 280.165L763.371 283.103C760.383 280.267 757.04 278.241 752.228 278.241C744.379 278.241 738.504 284.572 738.504 292.825C738.504 301.08 744.431 307.514 752.228 307.514C757.091 307.514 760.281 305.639 763.675 302.398L766.308 304.98C762.611 308.729 758.559 311.209 752.128 311.209Z" fill="#D28E0A"/>
<path d="M787.928 310.602H783.877V296.575L769.14 275.151H774.001L785.953 292.876L798.007 275.151H802.665L787.928 296.522V310.602Z" fill="#D28E0A"/>
</g>
<defs>
<clipPath id="clip0_1_2">
<rect width="993.173" height="319.667" fill="white"/>
</clipPath>
</defs>
</svg>
